HIERARCHY
ROOT root
{
	OFFSET 0.0000 0.0000 0.0000
	CHANNELS 6 Xposition Yposition Zposition Zrotation Xrotation Yrotation
	JOINT lowerback
	{
		OFFSET 0.0000 0.0000 0.0000
		CHANNELS 3 Zrotation Xrotation Yrotation
		JOINT upperback
		{
			OFFSET -0.2975 11.0962 -0.4289
			CHANNELS 3 Zrotation Xrotation Yrotation
			JOINT thorax
			{
				OFFSET -0.0009 11.0405 -0.3169
				CHANNELS 3 Zrotation Xrotation Yrotation
				JOINT neck
				{
					OFFSET 0.1944 11.1642 0.0841
					CHANNELS 3 Zrotation Xrotation Yrotation
					JOINT head
					{
						OFFSET 1.6277 15.5530 -0.6089
						CHANNELS 3 Zrotation Xrotation Yrotation
						End Site
						{
							OFFSET 0.0000 0.0000 0.0000
						}
					}
				}
			}
			JOINT lshoulderjoint
			{
				OFFSET -0.0009 11.0405 -0.3169
				CHANNELS 3 Zrotation Xrotation Yrotation
				JOINT lhumerus
				{
					OFFSET 14.1669 18.7170 0.1105
					CHANNELS 3 Zrotation Xrotation Yrotation
					JOINT lradius
					{
						OFFSET 29.5186 0.0000 0.0000
						CHANNELS 3 Zrotation Xrotation Yrotation
						JOINT lhand
						{
							OFFSET 23.9354 0.0000 0.0000
							CHANNELS 3 Zrotation Xrotation Yrotation
							End Site
							{
								OFFSET 0.0000 0.0000 0.0000
							}
						}
					}
				}
			}
			JOINT rshoulderjoint
			{
				OFFSET -0.0009 11.0405 -0.3169
				CHANNELS 3 Zrotation Xrotation Yrotation
				JOINT rhumerus
				{
					OFFSET -14.2042 18.2168 -0.2511
					CHANNELS 3 Zrotation Xrotation Yrotation
					JOINT rradius
					{
						OFFSET -29.7619 0.0000 0.0000
						CHANNELS 3 Zrotation Xrotation Yrotation
						JOINT rhand
						{
							OFFSET -25.1658 0.0000 0.0000
							CHANNELS 3 Zrotation Xrotation Yrotation
							End Site
							{
								OFFSET 0.0000 0.0000 0.0000
							}
						}
					}
				}
			}
		}
	}
	JOINT rfemur
	{
		OFFSET -7.7032 -9.8555 2.1513
		CHANNELS 3 Zrotation Xrotation Yrotation
		JOINT rtibia
		{
			OFFSET -7.1353 -40.4666 0.0000
			CHANNELS 3 Zrotation Xrotation Yrotation
			JOINT rfoot
			{
				OFFSET -6.6645 -37.7961 0.0000
				CHANNELS 3 Zrotation Xrotation Yrotation
				JOINT rtoes
				{
					OFFSET -3.4134 -6.6508 11.8768
					CHANNELS 3 Zrotation Xrotation Yrotation
					End Site
					{
						OFFSET 0.0000 0.0000 0.0000
					}
				}
			}
		}
	}
	JOINT lfemur
	{
		OFFSET 8.5590 -9.8555 2.1513
		CHANNELS 3 Zrotation Xrotation Yrotation
		JOINT ltibia
		{
			OFFSET 7.2751 -41.2593 0.0000
			CHANNELS 3 Zrotation Xrotation Yrotation
			JOINT lfoot
			{
				OFFSET 6.5686 -37.2525 -0.0000
				CHANNELS 3 Zrotation Xrotation Yrotation
				JOINT ltoes
				{
					OFFSET 3.2326 -4.1860 10.4122
					CHANNELS 3 Zrotation Xrotation Yrotation
					End Site
					{
						OFFSET 0.0000 0.0000 0.0000
					}
				}
			}
		}
	}
}
MOTION
Frames: 16
Frame Time: 0.008300
-0.0005 0.0003 -0.0001 -4.8002 7.9692 33.6794 -2.7399 -16.6204 0.7724 -0.0595 -1.5111 1.5310 3.4107 14.9687 0.3290 -0.0004 -0.0009 -0.0005 0.0005 -0.0016 0.0000 -83.2485 -1.0806 -165.2997 -2.8893 -12.0898 -155.2000 0.0001 -0.0005 -54.4901 24.6894 33.9994 8.6495 91.6190 2.4508 164.7579 13.6705 -10.1206 172.4089 -0.0004 0.0006 72.2075 -16.0404 36.8498 -12.5901 3.0193 3.3374 -16.6002 1.0105 24.5611 -4.6187 -2.2012 7.8811 19.3914 -0.0008 -0.0001 -0.0016 -6.4900 -41.2297 12.4013 -2.0798 33.9398 6.8103 -0.0015 0.0011 -0.0001 0.0004 -0.0016 0.0004 
0.0002 0.0011 0.0006 -4.4595 7.9799 33.6093 -2.8093 -16.2295 0.5397 -0.4085 -1.6131 1.2710 2.9790 14.5304 0.2507 0.0002 -0.0006 0.0001 0.0004 0.0010 -0.0000 -83.4972 -1.3290 -165.8104 -3.0090 -12.3410 -155.1587 0.0007 0.0001 -53.5701 24.9889 34.7994 8.7209 91.5499 2.6193 165.1313 13.0502 -10.1787 171.6193 -0.0007 -0.0002 72.1889 -15.9992 36.9698 -12.3297 2.3395 1.9915 -15.1102 1.3483 28.0303 -5.3904 -2.4315 8.8507 18.1805 0.0003 0.0004 0.0006 -6.9804 -40.6793 11.8405 -2.1900 34.6895 7.0087 0.0003 -0.0004 -0.0006 0.0020 -0.0005 -0.0007 
0.0005 -0.0003 0.0006 -4.0521 7.9000 33.6403 -2.6510 -15.6613 0.2395 -0.8510 -1.6010 0.8794 2.2013 14.0298 0.1426 0.0014 -0.0004 0.0007 -0.0009 0.0005 0.0014 -83.8716 -1.8186 -166.4295 -3.3592 -12.1106 -155.3900 0.0017 -0.0015 -53.0991 23.0991 38.9403 13.5481 91.3297 3.0417 165.4999 12.4189 -10.1381 170.8008 -0.0006 0.0009 72.2609 -15.9703 37.2602 -12.3415 1.5995 0.4103 -13.9407 1.8014 31.8497 -6.2898 -2.7708 10.3096 16.9684 0.0001 -0.0000 0.0000 -5.6821 -40.2192 16.2894 -2.2205 34.9000 7.0597 -0.0005 0.0018 0.0003 -0.0001 0.0005 -0.0027 
0.0005 -0.0007 -0.0003 -3.7211 7.8395 33.5501 -2.7695 -15.3910 0.1398 -1.1098 -1.5388 0.7900 2.0183 13.8390 0.1010 -0.0021 -0.0000 -0.0012 0.0008 -0.0010 0.0002 -83.9790 -1.7801 -166.6309 -3.1601 -13.4502 -155.0386 0.0003 0.0003 -52.8707 24.8682 35.3298 12.6698 91.3008 2.9601 165.6920 12.0615 -10.5503 170.1296 0.0006 0.0022 72.1293 -16.5800 37.0094 -11.7304 1.0409 -1.3910 -12.5494 2.3596 35.8087 -7.3099 -3.2194 12.5311 15.3707 0.0027 0.1798 -0.0308 -8.1305 -38.9503 10.9099 -2.2301 34.9485 7.0800 0.0004 -0.0013 0.0000 0.0013 0.0012 -0.0009 
-0.0005 0.0007 0.0012 -3.3707 7.7089 33.3777 -3.0794 -15.1113 0.1409 -1.2907 -1.3789 0.8483 2.1791 13.7102 0.1101 0.0024 -0.0003 0.0016 -0.0017 0.0003 -0.0023 -83.9702 -1.5290 -166.7096 -3.2209 -14.1299 -155.2599 -0.0006 -0.0006 -52.3892 24.4107 32.7183 10.0903 91.4011 2.6796 165.8695 11.7203 -10.7405 169.5607 -0.0015 -0.0008 71.9890 -16.6915 36.6505 -11.4509 0.6398 -3.0794 -11.2585 2.9809 39.3705 -8.3207 -3.6700 15.0907 13.9232 0.0014 0.1384 -0.0200 -8.7707 -37.9095 9.9411 -2.2493 35.0906 7.1205 -0.0006 -0.0002 0.0001 -0.0008 0.0014 0.0005 
0.0004 0.0014 0.0006 -3.2210 7.7212 33.0802 -3.1901 -15.0778 0.1087 -1.4280 -1.3176 0.8508 2.1507 13.7398 0.0997 -0.0018 -0.0021 -0.0004 -0.0003 0.0016 -0.0004 -84.0097 -1.4601 -166.6695 -3.3590 -14.8116 -155.7703 0.0006 -0.0017 -51.9290 23.5405 31.9291 10.3008 91.2888 2.6200 165.8596 11.0703 -10.4386 169.0999 -0.0011 -0.0003 71.7894 -15.0888 37.2402 -13.0512 0.5010 -5.1196 -9.6794 3.7199 42.9400 -9.4391 -4.0595 17.9382 12.3996 0.0006 0.0884 -0.0187 -8.7405 -37.1797 10.5106 -2.2499 35.0981 7.1192 -0.0011 -0.0003 0.0003 -0.0002 0.0010 0.0012 
-0.0010 -0.0007 -0.0009 -3.0198 7.7303 32.8609 -3.3400 -15.1406 0.0588 -1.5378 -1.2497 0.8306 2.1698 13.8696 0.0799 -0.0005 0.0017 -0.0001 0.0019 -0.0010 0.0001 -84.0400 -1.3893 -166.5304 -3.6190 -15.3892 -156.5502 -0.0002 0.0004 -51.5304 22.0806 32.6881 12.5806 91.1800 2.5892 165.7407 10.6895 -10.6402 168.7002 -0.0001 0.0008 71.5716 -12.5406 37.9890 -16.4400 0.3611 -7.1401 -8.3001 4.5796 46.3898 -10.6606 -4.3801 21.0597 10.8909 -0.0006 -0.1486 0.0297 -8.7800 -36.3410 11.1000 -2.2407 35.0385 7.1004 0.0000 0.0010 0.0009 -0.0009 -0.0001 -0.0001 
-0.0007 0.0002 0.0001 -2.7798 7.8808 32.7291 -3.5881 -15.1992 -0.0309 -1.7013 -1.2186 0.7804 2.2283 13.9500 0.0295 -0.0000 -0.0004 -0.0005 0.0006 0.0023 0.0026 -84.0392 -1.2416 -166.4295 -3.8395 -15.7511 -157.1602 -0.0007 -0.0001 -50.9200 20.5786 34.0894 12.7908 91.0692 2.4702 165.6698 10.2804 -10.6999 168.2390 -0.0009 -0.0009 71.4011 -10.8893 38.2004 -18.3013 -0.0302 -9.3409 -7.4003 5.5898 49.7396 -12.0202 -4.6809 24.2584 9.6702 0.0005 -0.4701 0.0790 -8.9694 -35.6715 11.6705 -2.2294 34.9494 7.0797 -0.0006 -0.0019 -0.0010 0.0011 -0.0013 0.0006 
0.0018 0.0009 0.0012 -2.4197 7.9513 32.4197 -3.8978 -15.2195 -0.0595 -1.8500 -1.0995 0.8093 2.4000 14.0894 0.0116 0.0012 -0.0003 0.0002 -0.0003 0.0025 -0.0012 -84.1296 -1.0386 -166.2583 -4.0092 -16.1281 -157.5803 -0.0002 -0.0011 -50.3800 20.5304 34.8983 11.9003 91.0910 2.2500 165.5907 9.9788 -10.8013 167.7789 0.0011 -0.0010 71.2790 -10.4283 38.1380 -18.2087 -0.5415 -11.4292 -6.6482 6.7202 52.8708 -13.4703 -4.8391 27.2402 8.4705 0.0007 -0.8386 0.1498 -9.4308 -34.6604 11.6312 -2.2001 34.7809 7.0303 0.0009 0.0008 0.0001 -0.0008 -0.0014 -0.0002 
0.0005 0.0005 0.0018 -2.1589 7.8696 32.2822 -4.0013 -15.1302 -0.1091 -2.0193 -0.9289 0.7799 2.3285 14.1602 -0.0115 0.0002 0.0001 -0.0008 0.0006 -0.0008 -0.0006 -84.2118 -0.7685 -166.1404 -4.2099 -16.3095 -158.3709 0.0010 -0.0016 -49.8299 19.7302 35.3310 12.7994 91.0813 1.9609 165.5494 9.8785 -11.2791 167.2898 -0.0016 0.0012 71.1603 -10.7424 37.9906 -17.6401 -0.9005 -13.3900 -6.2698 7.9406 55.6794 -14.9685 -4.7888 29.5701 7.3298 0.0003 -1.0915 0.1892 -9.4309 -33.6483 12.3485 -2.1591 34.5107 6.9596 -0.0003 0.0006 -0.0007 -0.0001 0.0010 -0.0014 
0.0004 0.0002 0.0007 -1.9519 8.0906 32.3001 -4.2105 -15.2416 -0.2979 -2.1801 -0.9569 0.5993 2.2896 14.2613 -0.1105 -0.0015 -0.0019 -0.0009 -0.0000 0.0005 0.0012 -84.3506 -0.8503 -166.0714 -4.7099 -16.8299 -159.3677 0.0008 -0.0011 -49.2511 17.1420 36.4203 14.4494 91.1192 2.0112 165.4184 9.7009 -11.6121 166.6191 0.0012 -0.0004 71.1105 -11.1405 37.5904 -17.3193 -1.4115 -15.6212 -6.0501 9.2818 58.2598 -16.5587 -4.5219 30.9797 6.2190 -0.0003 -1.1204 0.1998 -9.5091 -32.9487 13.4785 -2.1107 34.1285 6.8599 -0.0007 -0.0011 0.0006 -0.0014 0.0005 -0.0000 
-0.0012 -0.0001 -0.0000 -1.6998 8.3084 32.1798 -4.4695 -15.3299 -0.3978 -2.3108 -1.0595 0.5301 2.3811 14.2510 -0.1600 -0.0002 0.0005 -0.0021 0.0005 -0.0013 -0.0005 -84.4680 -0.7508 -166.0597 -5.0894 -17.3620 -160.0001 0.0016 -0.0012 -48.8213 15.3107 37.6793 16.0492 91.0582 1.8894 165.4502 9.3309 -11.8098 165.8507 -0.0002 0.0007 71.0790 -10.7910 37.2685 -17.5907 -1.8194 -17.6807 -5.6484 10.6307 60.4801 -18.1382 -3.9194 31.3595 4.9011 -0.0011 -0.9385 0.1704 -9.7485 -32.1310 14.2296 -2.0399 33.6711 6.7516 0.0015 -0.0008 -0.0001 0.0003 0.0005 0.0011 
-0.0001 -0.0011 -0.0005 -1.5400 8.2292 32.1298 -4.8417 -15.1008 -0.8792 -2.1490 -1.0602 -0.0912 2.6410 14.0887 -0.4787 -0.0000 0.0006 0.0022 -0.0003 -0.0006 -0.0001 -85.1903 -1.4321 -166.3391 -5.8303 -17.4803 -160.2304 0.0017 -0.0003 -48.5008 15.2102 38.7889 17.1204 91.5718 2.2393 165.4594 9.7200 -11.9199 165.4493 -0.0008 0.0013 70.9287 -10.1499 37.9108 -17.1092 -1.9905 -19.2895 -5.4507 11.9600 62.3294 -19.6518 -3.3204 30.8691 3.8598 0.0005 -0.6191 0.1091 -9.8204 -31.0401 14.9289 -1.9612 33.1003 6.6012 -0.0010 0.0019 -0.0012 0.0004 -0.0005 0.0014 
-0.0019 0.0006 0.0002 -1.4801 8.1576 32.3607 -4.5490 -14.9582 -0.7489 -2.2702 -1.0999 0.0404 2.3001 13.9015 -0.3709 0.0004 0.0002 -0.0002 0.0020 0.0004 0.0004 -85.2315 -0.5883 -166.3911 -5.8000 -18.1709 -160.8508 -0.0009 -0.0010 -48.3000 15.6198 38.6502 16.6379 90.8997 1.5516 165.8189 9.0212 -11.9803 164.5194 -0.0021 -0.0014 70.8897 -9.2708 38.1499 -17.2101 -2.1790 -20.8082 -5.5890 13.2595 63.9185 -21.1105 -2.8504 29.9580 3.1498 0.0010 -0.3505 0.0601 -10.1695 -29.8616 14.7506 -1.8697 32.4107 6.4300 0.0009 -0.0006 0.0017 -0.0006 -0.0013 -0.0010 
-0.0001 0.0004 -0.0008 -1.4490 8.1293 32.5688 -4.3686 -14.8606 -0.7514 -2.3604 -1.2291 -0.0005 2.0205 13.6695 -0.3602 -0.0014 0.0004 -0.0008 -0.0014 0.0000 -0.0000 -85.3112 -0.2306 -166.5712 -5.9405 -18.7406 -161.4496 0.0004 -0.0009 -48.1788 15.4418 38.6594 15.3698 90.5708 1.2412 166.1092 8.6596 -12.1595 163.4979 -0.0004 -0.0005 70.8217 -8.9605 38.0692 -17.4097 -2.1904 -22.2495 -5.4792 14.4408 65.1797 -22.4200 -2.4617 28.8885 2.6203 -0.0013 -0.1592 0.0309 -10.4388 -28.7820 14.8896 -1.7716 31.6908 6.2498 0.0002 -0.0015 0.0019 0.0009 0.0005 -0.0001 
-0.0012 0.0004 0.0004 -1.4882 7.9605 32.7505 -4.0976 -14.7385 -0.8513 -2.3084 -1.2500 -0.1912 1.7311 13.5597 -0.4102 -0.0005 0.0001 -0.0003 -0.0005 -0.0009 0.0007 -85.6308 -0.1094 -166.6704 -6.2806 -19.5892 -161.9202 -0.0006 0.0010 -48.2191 16.3201 38.3504 13.7202 90.1512 1.1298 166.2291 8.3206 -12.3685 162.7598 0.0009 -0.0005 70.6691 -9.0301 38.3185 -17.2995 -1.9503 -23.5090 -5.2986 15.4503 66.1686 -23.5297 -2.0389 27.8993 1.9700 0.0013 -0.1103 0.0204 -10.2696 -27.7011 15.8999 -1.6789 30.9090 6.0597 -0.0014 -0.0003 -0.0002 0.0006 0.0003 0.0018 
